# MagicaVoxel @ Ephtracy

# group
o 

# material
mtllib lamp.mtl
usemtl palette

# normals
vn -1 0 0
vn 1 0 0
vn 0 0 1
vn 0 0 -1
vn 0 -1 0
vn 0 1 0

# texcoords
vt 0.939453 0.5
vt 0.943359 0.5
vt 0.982422 0.5

# verts
v 0 2 0
v 0 2 -0.6
v 0 2.1 0
v 0 2.1 -0.6
v 0.1 2.1 -0.1
v 0.1 2.1 -0.5
v 0.1 2.2 -0.1
v 0.1 2.2 -0.5
v 0.2 2.2 -0.2
v 0.2 2.2 -0.4
v 0.2 5.8 -0.2
v 0.2 5.8 -0.4
v 1.2 4.5 0
v 1.2 4.5 -0.5
v 1.2 4.6 -0.1
v 1.2 4.6 -0.4
v 1.2 5.1 -0.1
v 1.2 5.1 -0.4
v 1.2 5.2 0
v 1.2 5.2 -0.5
v 1.3 5.5 -0.2
v 1.3 5.5 -0.4
v 1.3 5.6 -0.2
v 1.3 5.6 -0.4
v 1.4 5.2 -0.2
v 1.4 5.2 -0.3
v 1.4 5.5 -0.2
v 1.4 5.5 -0.3
v 1.6 4.6 0
v 1.6 4.6 -0.1
v 1.6 4.6 -0.4
v 1.6 4.6 -0.5
v 1.6 5.1 0
v 1.6 5.1 -0.1
v 1.6 5.1 -0.4
v 1.6 5.1 -0.5
v 0.4 2.2 -0.2
v 0.4 2.2 -0.4
v 0.4 5.6 -0.2
v 0.4 5.6 -0.4
v 0.5 2.1 -0.1
v 0.5 2.1 -0.5
v 0.5 2.2 -0.1
v 0.5 2.2 -0.5
v 0.6 2 0
v 0.6 2 -0.6
v 0.6 2.1 0
v 0.6 2.1 -0.6
v 1.3 4.6 0
v 1.3 4.6 -0.1
v 1.3 4.6 -0.4
v 1.3 4.6 -0.5
v 1.3 5.1 0
v 1.3 5.1 -0.1
v 1.3 5.1 -0.4
v 1.3 5.1 -0.5
v 1.5 5.2 -0.2
v 1.5 5.2 -0.3
v 1.5 5.5 -0.2
v 1.5 5.5 -0.3
v 1.5 5.5 -0.4
v 1.5 5.8 -0.2
v 1.5 5.8 -0.4
v 1.7 4.5 0
v 1.7 4.5 -0.5
v 1.7 4.6 -0.1
v 1.7 4.6 -0.4
v 1.7 5.1 -0.1
v 1.7 5.1 -0.4
v 1.7 5.2 0
v 1.7 5.2 -0.5
v 0 2 0
v 0 2.1 0
v 0.6 2 0
v 0.6 2.1 0
v 1.2 4.5 0
v 1.2 5.2 0
v 1.3 4.6 0
v 1.3 5.1 0
v 1.6 4.6 0
v 1.6 5.1 0
v 1.7 4.5 0
v 1.7 5.2 0
v 0.1 2.1 -0.1
v 0.1 2.2 -0.1
v 0.5 2.1 -0.1
v 0.5 2.2 -0.1
v 0.2 2.2 -0.2
v 0.2 5.8 -0.2
v 0.4 2.2 -0.2
v 0.4 5.6 -0.2
v 1.3 5.5 -0.2
v 1.3 5.6 -0.2
v 1.4 5.2 -0.2
v 1.4 5.5 -0.2
v 1.5 5.2 -0.2
v 1.5 5.5 -0.2
v 1.5 5.8 -0.2
v 1.2 4.6 -0.4
v 1.2 5.1 -0.4
v 1.3 4.6 -0.4
v 1.3 5.1 -0.4
v 1.6 4.6 -0.4
v 1.6 5.1 -0.4
v 1.7 4.6 -0.4
v 1.7 5.1 -0.4
v 1.2 4.6 -0.1
v 1.2 5.1 -0.1
v 1.3 4.6 -0.1
v 1.3 5.1 -0.1
v 1.6 4.6 -0.1
v 1.6 5.1 -0.1
v 1.7 4.6 -0.1
v 1.7 5.1 -0.1
v 1.4 5.2 -0.3
v 1.4 5.5 -0.3
v 1.5 5.2 -0.3
v 1.5 5.5 -0.3
v 0.2 2.2 -0.4
v 0.2 5.8 -0.4
v 0.4 2.2 -0.4
v 0.4 5.6 -0.4
v 1.3 5.5 -0.4
v 1.3 5.6 -0.4
v 1.5 5.5 -0.4
v 1.5 5.8 -0.4
v 0.1 2.1 -0.5
v 0.1 2.2 -0.5
v 0.5 2.1 -0.5
v 0.5 2.2 -0.5
v 1.2 4.5 -0.5
v 1.2 5.2 -0.5
v 1.3 4.6 -0.5
v 1.3 5.1 -0.5
v 1.6 4.6 -0.5
v 1.6 5.1 -0.5
v 1.7 4.5 -0.5
v 1.7 5.2 -0.5
v 0 2 -0.6
v 0 2.1 -0.6
v 0.6 2 -0.6
v 0.6 2.1 -0.6
v 0 2 0
v 0.6 2 0
v 0 2 -0.6
v 0.6 2 -0.6
v 1.2 4.5 0
v 1.7 4.5 0
v 1.2 4.5 -0.5
v 1.7 4.5 -0.5
v 1.3 5.1 0
v 1.6 5.1 0
v 1.2 5.1 -0.1
v 1.3 5.1 -0.1
v 1.6 5.1 -0.1
v 1.7 5.1 -0.1
v 1.2 5.1 -0.4
v 1.3 5.1 -0.4
v 1.6 5.1 -0.4
v 1.7 5.1 -0.4
v 1.3 5.1 -0.5
v 1.6 5.1 -0.5
v 1.3 5.5 -0.2
v 1.4 5.5 -0.2
v 1.4 5.5 -0.3
v 1.5 5.5 -0.3
v 1.3 5.5 -0.4
v 1.5 5.5 -0.4
v 0.4 5.6 -0.2
v 1.3 5.6 -0.2
v 0.4 5.6 -0.4
v 1.3 5.6 -0.4
v 0 2.1 0
v 0.6 2.1 0
v 0.1 2.1 -0.1
v 0.5 2.1 -0.1
v 0.1 2.1 -0.5
v 0.5 2.1 -0.5
v 0 2.1 -0.6
v 0.6 2.1 -0.6
v 0.1 2.2 -0.1
v 0.5 2.2 -0.1
v 0.2 2.2 -0.2
v 0.4 2.2 -0.2
v 0.2 2.2 -0.4
v 0.4 2.2 -0.4
v 0.1 2.2 -0.5
v 0.5 2.2 -0.5
v 1.3 4.6 0
v 1.6 4.6 0
v 1.2 4.6 -0.1
v 1.3 4.6 -0.1
v 1.6 4.6 -0.1
v 1.7 4.6 -0.1
v 1.2 4.6 -0.4
v 1.3 4.6 -0.4
v 1.6 4.6 -0.4
v 1.7 4.6 -0.4
v 1.3 4.6 -0.5
v 1.6 4.6 -0.5
v 1.2 5.2 0
v 1.7 5.2 0
v 1.4 5.2 -0.2
v 1.5 5.2 -0.2
v 1.4 5.2 -0.3
v 1.5 5.2 -0.3
v 1.2 5.2 -0.5
v 1.7 5.2 -0.5
v 0.2 5.8 -0.2
v 1.5 5.8 -0.2
v 0.2 5.8 -0.4
v 1.5 5.8 -0.4

# faces
f 3/1/1 2/1/1 1/1/1
f 4/1/1 2/1/1 3/1/1
f 7/1/1 6/1/1 5/1/1
f 8/1/1 6/1/1 7/1/1
f 11/1/1 10/1/1 9/1/1
f 12/1/1 10/1/1 11/1/1
f 15/2/1 14/2/1 13/2/1
f 16/2/1 14/2/1 15/2/1
f 17/2/1 15/2/1 13/2/1
f 18/2/1 14/2/1 16/2/1
f 19/2/1 17/2/1 13/2/1
f 19/2/1 18/2/1 17/2/1
f 20/2/1 14/2/1 18/2/1
f 20/2/1 18/2/1 19/2/1
f 23/1/1 22/1/1 21/1/1
f 24/1/1 22/1/1 23/1/1
f 27/3/1 26/3/1 25/3/1
f 28/3/1 26/3/1 27/3/1
f 33/2/1 30/2/1 29/2/1
f 34/2/1 30/2/1 33/2/1
f 35/2/1 32/2/1 31/2/1
f 36/2/1 32/2/1 35/2/1
f 37/1/2 38/1/2 39/1/2
f 39/1/2 38/1/2 40/1/2
f 41/1/2 42/1/2 43/1/2
f 43/1/2 42/1/2 44/1/2
f 45/1/2 46/1/2 47/1/2
f 47/1/2 46/1/2 48/1/2
f 49/2/2 50/2/2 53/2/2
f 53/2/2 50/2/2 54/2/2
f 51/2/2 52/2/2 55/2/2
f 55/2/2 52/2/2 56/2/2
f 57/3/2 58/3/2 59/3/2
f 59/3/2 58/3/2 60/3/2
f 59/1/2 60/1/2 62/1/2
f 60/1/2 61/1/2 62/1/2
f 62/1/2 61/1/2 63/1/2
f 64/2/2 65/2/2 66/2/2
f 66/2/2 65/2/2 67/2/2
f 64/2/2 66/2/2 68/2/2
f 67/2/2 65/2/2 69/2/2
f 64/2/2 68/2/2 70/2/2
f 68/2/2 69/2/2 70/2/2
f 69/2/2 65/2/2 71/2/2
f 70/2/2 69/2/2 71/2/2
f 74/1/3 73/1/3 72/1/3
f 75/1/3 73/1/3 74/1/3
f 78/2/3 77/2/3 76/2/3
f 79/2/3 77/2/3 78/2/3
f 80/2/3 78/2/3 76/2/3
f 81/2/3 77/2/3 79/2/3
f 82/2/3 80/2/3 76/2/3
f 82/2/3 81/2/3 80/2/3
f 83/2/3 77/2/3 81/2/3
f 83/2/3 81/2/3 82/2/3
f 86/1/3 85/1/3 84/1/3
f 87/1/3 85/1/3 86/1/3
f 90/1/3 89/1/3 88/1/3
f 91/1/3 89/1/3 90/1/3
f 93/1/3 89/1/3 91/1/3
f 95/1/3 93/1/3 92/1/3
f 96/3/3 95/3/3 94/3/3
f 97/1/3 93/1/3 95/1/3
f 97/3/3 95/3/3 96/3/3
f 98/1/3 89/1/3 93/1/3
f 98/1/3 93/1/3 97/1/3
f 101/2/3 100/2/3 99/2/3
f 102/2/3 100/2/3 101/2/3
f 105/2/3 104/2/3 103/2/3
f 106/2/3 104/2/3 105/2/3
f 107/2/4 108/2/4 109/2/4
f 109/2/4 108/2/4 110/2/4
f 111/2/4 112/2/4 113/2/4
f 113/2/4 112/2/4 114/2/4
f 115/3/4 116/3/4 117/3/4
f 117/3/4 116/3/4 118/3/4
f 119/1/4 120/1/4 121/1/4
f 121/1/4 120/1/4 122/1/4
f 122/1/4 120/1/4 124/1/4
f 123/1/4 124/1/4 125/1/4
f 124/1/4 120/1/4 126/1/4
f 125/1/4 124/1/4 126/1/4
f 127/1/4 128/1/4 129/1/4
f 129/1/4 128/1/4 130/1/4
f 131/2/4 132/2/4 133/2/4
f 133/2/4 132/2/4 134/2/4
f 131/2/4 133/2/4 135/2/4
f 134/2/4 132/2/4 136/2/4
f 131/2/4 135/2/4 137/2/4
f 135/2/4 136/2/4 137/2/4
f 136/2/4 132/2/4 138/2/4
f 137/2/4 136/2/4 138/2/4
f 139/1/4 140/1/4 141/1/4
f 141/1/4 140/1/4 142/1/4
f 145/1/5 144/1/5 143/1/5
f 146/1/5 144/1/5 145/1/5
f 149/2/5 148/2/5 147/2/5
f 150/2/5 148/2/5 149/2/5
f 154/2/5 152/2/5 151/2/5
f 155/2/5 152/2/5 154/2/5
f 157/2/5 154/2/5 153/2/5
f 157/2/5 156/2/5 155/2/5
f 157/2/5 155/2/5 154/2/5
f 158/2/5 156/2/5 157/2/5
f 159/2/5 156/2/5 158/2/5
f 160/2/5 156/2/5 159/2/5
f 161/2/5 159/2/5 158/2/5
f 162/2/5 159/2/5 161/2/5
f 165/1/5 164/1/5 163/1/5
f 167/1/5 165/1/5 163/1/5
f 167/1/5 166/1/5 165/1/5
f 168/1/5 166/1/5 167/1/5
f 171/1/5 170/1/5 169/1/5
f 172/1/5 170/1/5 171/1/5
f 173/1/6 174/1/6 175/1/6
f 175/1/6 174/1/6 176/1/6
f 173/1/6 175/1/6 177/1/6
f 176/1/6 174/1/6 178/1/6
f 173/1/6 177/1/6 179/1/6
f 177/1/6 178/1/6 179/1/6
f 178/1/6 174/1/6 180/1/6
f 179/1/6 178/1/6 180/1/6
f 181/1/6 182/1/6 183/1/6
f 183/1/6 182/1/6 184/1/6
f 181/1/6 183/1/6 185/1/6
f 184/1/6 182/1/6 186/1/6
f 181/1/6 185/1/6 187/1/6
f 185/1/6 186/1/6 187/1/6
f 186/1/6 182/1/6 188/1/6
f 187/1/6 186/1/6 188/1/6
f 189/2/6 190/2/6 192/2/6
f 192/2/6 190/2/6 193/2/6
f 191/2/6 192/2/6 195/2/6
f 193/2/6 194/2/6 195/2/6
f 192/2/6 193/2/6 195/2/6
f 195/2/6 194/2/6 196/2/6
f 196/2/6 194/2/6 197/2/6
f 197/2/6 194/2/6 198/2/6
f 196/2/6 197/2/6 199/2/6
f 199/2/6 197/2/6 200/2/6
f 201/2/6 202/2/6 203/2/6
f 203/2/6 202/2/6 204/2/6
f 201/2/6 203/2/6 205/2/6
f 204/2/6 202/2/6 206/2/6
f 201/2/6 205/2/6 207/2/6
f 205/2/6 206/2/6 207/2/6
f 206/2/6 202/2/6 208/2/6
f 207/2/6 206/2/6 208/2/6
f 209/1/6 210/1/6 211/1/6
f 211/1/6 210/1/6 212/1/6
