# Blender v2.79 (sub 0) OBJ File: ''
# www.blender.org
mtllib mushroom.mtl
o mushroom
v -0.479623 0.500000 0.277909
v -0.479623 0.400000 -0.522091
v -0.479623 0.400000 0.477909
v -0.479623 0.500000 -0.022091
v -0.479623 0.500000 -0.422091
v -0.479623 0.500000 -0.522091
v -0.479623 0.800000 0.277909
v -0.479623 0.800000 0.077909
v -0.479623 0.800000 -0.022091
v -0.479623 0.800000 -0.322091
v -0.479623 0.800000 -0.422091
v -0.479623 0.800000 -0.522091
v -0.479623 0.900000 0.477909
v -0.479623 0.900000 0.077909
v -0.479623 0.900000 -0.322091
v -0.479623 0.900000 -0.522091
v -0.379623 0.400000 0.377909
v -0.379623 0.300000 -0.422091
v -0.379623 0.300000 0.377909
v -0.379623 0.400000 -0.422091
v -0.179623 0.300000 0.177909
v -0.179623 0.000000 -0.222091
v -0.179623 0.000000 0.177909
v -0.179623 0.300000 -0.222091
v 0.220377 0.000000 0.177909
v 0.220377 0.000000 -0.222091
v 0.220377 0.300000 0.177909
v 0.220377 0.300000 -0.222091
v 0.420377 0.300000 0.377909
v 0.420377 0.300000 -0.422091
v 0.420377 0.400000 0.377909
v 0.420377 0.400000 -0.422091
v 0.520377 0.400000 0.477909
v 0.520377 0.400000 -0.522091
v 0.520377 0.500000 0.477909
v 0.520377 0.500000 0.377909
v 0.520377 0.500000 0.177909
v 0.520377 0.500000 -0.222091
v 0.520377 0.800000 0.477909
v 0.520377 0.800000 0.377909
v 0.520377 0.800000 0.177909
v 0.520377 0.800000 -0.222091
v 0.520377 0.900000 0.477909
v 0.520377 0.900000 -0.522091
v -0.279623 0.500000 0.477909
v -0.479623 0.900000 0.477909
v -0.479623 0.400000 0.477909
v -0.279623 0.800000 0.477909
v 0.020377 0.500000 0.477909
v 0.020377 0.800000 0.477909
v 0.320377 0.500000 0.477909
v 0.320377 0.800000 0.477909
v 0.520377 0.400000 0.477909
v 0.520377 0.500000 0.477909
v 0.520377 0.800000 0.477909
v 0.520377 0.900000 0.477909
v 0.420377 0.300000 0.377909
v -0.379623 0.400000 0.377909
v -0.379623 0.300000 0.377909
v 0.420377 0.400000 0.377909
v 0.220377 0.000000 0.177909
v -0.179623 0.300000 0.177909
v -0.179623 0.000000 0.177909
v 0.220377 0.300000 0.177909
v -0.179623 0.000000 -0.222091
v -0.179623 0.300000 -0.222091
v 0.220377 0.000000 -0.222091
v 0.220377 0.300000 -0.222091
v -0.379623 0.300000 -0.422091
v -0.379623 0.400000 -0.422091
v 0.420377 0.300000 -0.422091
v 0.420377 0.400000 -0.422091
v -0.479623 0.400000 -0.522091
v -0.479623 0.500000 -0.522091
v -0.179623 0.500000 -0.522091
v -0.479623 0.800000 -0.522091
v -0.479623 0.900000 -0.522091
v -0.179623 0.800000 -0.522091
v 0.020377 0.500000 -0.522091
v 0.020377 0.800000 -0.522091
v 0.320377 0.500000 -0.522091
v 0.320377 0.800000 -0.522091
v 0.520377 0.400000 -0.522091
v 0.520377 0.900000 -0.522091
v -0.179623 0.000000 -0.222091
v 0.220377 0.000000 0.177909
v -0.179623 0.000000 0.177909
v 0.220377 0.000000 -0.222091
v -0.179623 0.300000 0.177909
v 0.420377 0.300000 0.377909
v -0.379623 0.300000 0.377909
v 0.220377 0.300000 0.177909
v -0.179623 0.300000 -0.222091
v 0.220377 0.300000 -0.222091
v -0.379623 0.300000 -0.422091
v 0.420377 0.300000 -0.422091
v -0.379623 0.400000 0.377909
v 0.520377 0.400000 0.477909
v -0.479623 0.400000 0.477909
v 0.420377 0.400000 0.377909
v -0.379623 0.400000 -0.422091
v 0.420377 0.400000 -0.422091
v -0.479623 0.400000 -0.522091
v 0.520377 0.400000 -0.522091
v -0.479623 0.900000 0.477909
v 0.520377 0.900000 0.477909
v 0.020377 0.900000 0.377909
v 0.320377 0.900000 0.377909
v -0.479623 0.900000 0.077909
v -0.179623 0.900000 0.077909
v 0.020377 0.900000 -0.122091
v 0.320377 0.900000 -0.122091
v -0.479623 0.900000 -0.322091
v -0.179623 0.900000 -0.322091
v -0.479623 0.900000 -0.522091
v 0.520377 0.900000 -0.522091
vt 0.974609 0.500000
vt 0.974609 0.500000
vt 0.974609 0.500000
vt 0.974609 0.500000
vt 0.974609 0.500000
vt 0.974609 0.500000
vt 0.974609 0.500000
vt 0.978516 0.500000
vt 0.978516 0.500000
vt 0.978516 0.500000
vt 0.978516 0.500000
vt 0.974609 0.500000
vt 0.978516 0.500000
vt 0.974609 0.500000
vt 0.978516 0.500000
vt 0.978516 0.500000
vt 0.978516 0.500000
vt 0.974609 0.500000
vt 0.978516 0.500000
vt 0.974609 0.500000
vt 0.974609 0.500000
vt 0.978516 0.500000
vt 0.978516 0.500000
vt 0.974609 0.500000
vt 0.974609 0.500000
vt 0.974609 0.500000
vt 0.978516 0.500000
vt 0.974609 0.500000
vt 0.974609 0.500000
vt 0.974609 0.500000
vt 0.974609 0.500000
vt 0.974609 0.500000
vt 0.970703 0.500000
vt 0.970703 0.500000
vt 0.970703 0.500000
vt 0.970703 0.500000
vt 0.970703 0.500000
vt 0.970703 0.500000
vt 0.970703 0.500000
vt 0.970703 0.500000
vt 0.974609 0.500000
vt 0.974609 0.500000
vt 0.974609 0.500000
vt 0.974609 0.500000
vt 0.974609 0.500000
vt 0.974609 0.500000
vt 0.974609 0.500000
vt 0.974609 0.500000
vt 0.974609 0.500000
vt 0.974609 0.500000
vt 0.978516 0.500000
vt 0.978516 0.500000
vt 0.978516 0.500000
vt 0.974609 0.500000
vt 0.978516 0.500000
vt 0.978516 0.500000
vt 0.978516 0.500000
vt 0.978516 0.500000
vt 0.974609 0.500000
vt 0.974609 0.500000
vt 0.978516 0.500000
vt 0.974609 0.500000
vt 0.974609 0.500000
vt 0.974609 0.500000
vt 0.974609 0.500000
vt 0.974609 0.500000
vt 0.974609 0.500000
vt 0.974609 0.500000
vt 0.974609 0.500000
vt 0.978516 0.500000
vt 0.978516 0.500000
vt 0.978516 0.500000
vt 0.974609 0.500000
vt 0.978516 0.500000
vt 0.974609 0.500000
vt 0.974609 0.500000
vt 0.974609 0.500000
vt 0.978516 0.500000
vt 0.978516 0.500000
vt 0.978516 0.500000
vt 0.974609 0.500000
vt 0.974609 0.500000
vt 0.978516 0.500000
vt 0.974609 0.500000
vt 0.974609 0.500000
vt 0.974609 0.500000
vt 0.974609 0.500000
vt 0.974609 0.500000
vt 0.970703 0.500000
vt 0.970703 0.500000
vt 0.970703 0.500000
vt 0.970703 0.500000
vt 0.970703 0.500000
vt 0.970703 0.500000
vt 0.970703 0.500000
vt 0.970703 0.500000
vt 0.974609 0.500000
vt 0.974609 0.500000
vt 0.974609 0.500000
vt 0.974609 0.500000
vt 0.974609 0.500000
vt 0.974609 0.500000
vt 0.974609 0.500000
vt 0.978516 0.500000
vt 0.978516 0.500000
vt 0.978516 0.500000
vt 0.974609 0.500000
vt 0.974609 0.500000
vt 0.974609 0.500000
vt 0.978516 0.500000
vt 0.974609 0.500000
vt 0.974609 0.500000
vt 0.974609 0.500000
vt 0.978516 0.500000
vt 0.978516 0.500000
vt 0.978516 0.500000
vt 0.974609 0.500000
vt 0.978516 0.500000
vt 0.974609 0.500000
vt 0.974609 0.500000
vt 0.970703 0.500000
vt 0.970703 0.500000
vt 0.970703 0.500000
vt 0.970703 0.500000
vt 0.974609 0.500000
vt 0.974609 0.500000
vt 0.974609 0.500000
vt 0.974609 0.500000
vt 0.974609 0.500000
vt 0.974609 0.500000
vt 0.974609 0.500000
vt 0.974609 0.500000
vt 0.974609 0.500000
vt 0.974609 0.500000
vt 0.974609 0.500000
vt 0.974609 0.500000
vt 0.974609 0.500000
vt 0.974609 0.500000
vt 0.974609 0.500000
vt 0.974609 0.500000
vt 0.974609 0.500000
vt 0.974609 0.500000
vt 0.974609 0.500000
vt 0.974609 0.500000
vt 0.974609 0.500000
vt 0.974609 0.500000
vt 0.978516 0.500000
vt 0.978516 0.500000
vt 0.978516 0.500000
vt 0.974609 0.500000
vt 0.974609 0.500000
vt 0.978516 0.500000
vt 0.978516 0.500000
vt 0.978516 0.500000
vt 0.978516 0.500000
vt 0.974609 0.500000
vt 0.978516 0.500000
vt 0.974609 0.500000
vt 0.974609 0.500000
vt 0.974609 0.500000
vn -1.0000 0.0000 0.0000
vn 1.0000 -0.0000 0.0000
vn 0.0000 -0.0000 1.0000
vn 0.0000 0.0000 -1.0000
vn 0.0000 -1.0000 -0.0000
vn 0.0000 1.0000 0.0000
usemtl palette.004
s 1
f 1/1/1 2/2/1 3/3/1
f 4/4/1 2/2/1 1/1/1
f 5/5/1 2/2/1 4/4/1
f 6/6/1 2/2/1 5/5/1
f 7/7/1 1/1/1 3/3/1
f 7/8/1 4/9/1 1/10/1
f 8/11/1 4/9/1 7/8/1
f 9/12/1 5/5/1 4/4/1
f 9/13/1 4/9/1 8/11/1
f 10/14/1 5/5/1 9/12/1
f 11/15/1 6/16/1 5/17/1
f 11/18/1 5/5/1 10/14/1
f 12/19/1 6/16/1 11/15/1
f 13/20/1 8/21/1 7/7/1
f 13/20/1 7/7/1 3/3/1
f 14/22/1 10/23/1 9/13/1
f 14/24/1 8/21/1 13/20/1
f 14/22/1 9/13/1 8/11/1
f 15/25/1 12/26/1 11/18/1
f 15/27/1 10/23/1 14/22/1
f 15/25/1 11/18/1 10/14/1
f 16/28/1 12/26/1 15/25/1
f 17/29/1 18/30/1 19/31/1
f 20/32/1 18/30/1 17/29/1
f 21/33/1 22/34/1 23/35/1
f 24/36/1 22/34/1 21/33/1
f 25/37/2 26/38/2 27/39/2
f 27/39/2 26/38/2 28/40/2
f 29/41/2 30/42/2 31/43/2
f 31/43/2 30/42/2 32/44/2
f 33/45/2 34/46/2 35/47/2
f 35/47/2 34/46/2 36/48/2
f 36/48/2 34/46/2 37/49/2
f 37/49/2 34/46/2 38/50/2
f 35/51/2 36/52/2 39/53/2
f 36/48/2 37/49/2 40/54/2
f 39/53/2 36/52/2 40/55/2
f 37/56/2 38/57/2 41/58/2
f 40/54/2 37/49/2 41/59/2
f 38/50/2 34/46/2 42/60/2
f 41/58/2 38/57/2 42/61/2
f 40/54/2 41/59/2 43/62/2
f 39/63/2 40/54/2 43/62/2
f 41/59/2 42/60/2 43/62/2
f 42/60/2 34/46/2 44/64/2
f 43/62/2 42/60/2 44/64/2
f 45/65/3 46/66/3 47/67/3
f 48/68/3 46/66/3 45/65/3
f 49/69/3 45/65/3 47/67/3
f 49/70/3 48/71/3 45/72/3
f 50/73/3 46/66/3 48/68/3
f 50/74/3 48/71/3 49/70/3
f 51/75/3 49/69/3 47/67/3
f 51/75/3 50/73/3 49/69/3
f 52/76/3 46/66/3 50/73/3
f 52/76/3 50/73/3 51/75/3
f 53/77/3 51/75/3 47/67/3
f 54/78/3 52/79/3 51/80/3
f 54/81/3 51/75/3 53/77/3
f 55/82/3 46/66/3 52/76/3
f 55/83/3 52/79/3 54/78/3
f 56/84/3 46/66/3 55/82/3
f 57/85/3 58/86/3 59/87/3
f 60/88/3 58/86/3 57/85/3
f 61/89/3 62/90/3 63/91/3
f 64/92/3 62/90/3 61/89/3
f 65/93/4 66/94/4 67/95/4
f 67/95/4 66/94/4 68/96/4
f 69/97/4 70/98/4 71/99/4
f 71/99/4 70/98/4 72/100/4
f 73/101/4 74/102/4 75/103/4
f 74/104/4 76/105/4 75/106/4
f 76/107/4 77/108/4 78/109/4
f 75/106/4 76/105/4 78/110/4
f 73/101/4 75/103/4 79/111/4
f 75/103/4 78/109/4 79/111/4
f 78/109/4 77/108/4 80/112/4
f 79/111/4 78/109/4 80/112/4
f 73/101/4 79/111/4 81/113/4
f 79/114/4 80/115/4 81/116/4
f 80/112/4 77/108/4 82/117/4
f 81/116/4 80/115/4 82/118/4
f 73/101/4 81/113/4 83/119/4
f 81/113/4 82/117/4 83/119/4
f 82/117/4 77/108/4 84/120/4
f 83/119/4 82/117/4 84/120/4
f 85/121/5 86/122/5 87/123/5
f 88/124/5 86/122/5 85/121/5
f 89/125/5 90/126/5 91/127/5
f 92/128/5 90/126/5 89/125/5
f 93/129/5 89/125/5 91/127/5
f 94/130/5 90/126/5 92/128/5
f 95/131/5 93/129/5 91/127/5
f 95/131/5 94/130/5 93/129/5
f 96/132/5 90/126/5 94/130/5
f 96/132/5 94/130/5 95/131/5
f 97/133/5 98/134/5 99/135/5
f 100/136/5 98/134/5 97/133/5
f 101/137/5 97/133/5 99/135/5
f 102/138/5 98/134/5 100/136/5
f 103/139/5 101/137/5 99/135/5
f 103/139/5 102/138/5 101/137/5
f 104/140/5 98/134/5 102/138/5
f 104/140/5 102/138/5 103/139/5
f 105/141/6 106/142/6 107/143/6
f 107/143/6 106/142/6 108/144/6
f 105/141/6 107/143/6 109/145/6
f 109/145/6 107/143/6 110/146/6
f 107/147/6 108/148/6 111/149/6
f 110/146/6 107/143/6 111/150/6
f 108/144/6 106/142/6 112/151/6
f 111/149/6 108/148/6 112/152/6
f 109/153/6 110/154/6 113/155/6
f 110/146/6 111/150/6 114/156/6
f 113/155/6 110/154/6 114/157/6
f 111/150/6 112/151/6 114/156/6
f 113/158/6 114/156/6 115/159/6
f 112/151/6 106/142/6 116/160/6
f 115/159/6 114/156/6 116/160/6
f 114/156/6 112/151/6 116/160/6
