# Blender v2.79 (sub 0) OBJ File: ''
# www.blender.org
mtllib tree_1.mtl
o tree_1
v -1.408010 2.100000 0.589864
v -1.408010 1.900000 -0.810136
v -1.408010 1.900000 0.589864
v -1.408010 2.100000 -0.810136
v -1.408010 2.300000 0.589864
v -1.408010 2.300000 -0.810136
v -1.408010 3.100000 0.589865
v -1.408010 3.100000 -0.810135
v -0.708010 1.900000 0.089864
v -0.708010 1.000000 -0.110136
v -0.708010 1.000000 0.089864
v -0.708010 1.900000 -0.110136
v -0.508010 2.300000 0.589864
v -0.508010 2.200000 0.589864
v -0.508010 2.200000 1.189865
v -0.508010 2.500000 1.189865
v -0.508010 2.500000 0.589864
v -0.508010 2.700000 1.189865
v -0.508010 2.700000 0.589864
v -0.508010 2.900000 1.189865
v -0.508010 2.900000 0.589865
v -0.508010 3.000000 1.189865
v -0.508010 3.000000 0.589865
v -0.508010 3.100000 0.589865
v -0.508010 3.500000 1.189865
v -0.508010 3.100000 -0.510135
v -0.508010 3.500000 -0.510135
v -0.208010 1.000000 0.089864
v -0.208010 0.000000 -0.210136
v -0.208010 0.000000 0.189864
v -0.208010 1.000000 -0.110136
v -0.208010 1.200000 0.089864
v -0.208010 1.200000 -0.110136
v -0.208010 1.600000 0.189864
v -0.208010 1.600000 -0.210136
v 0.391990 2.200000 0.089864
v 0.391990 1.500000 -0.110136
v 0.391990 1.500000 0.089864
v 0.391990 2.200000 -0.110135
v -0.508010 1.200000 0.089864
v -0.508010 1.200000 -0.110136
v -0.508010 1.900000 0.089864
v -0.508010 1.900000 -0.110136
v -0.308010 1.900000 0.589864
v -0.308010 1.900000 -0.810136
v -0.308010 2.100000 0.589864
v -0.308010 2.100000 -0.810136
v -0.308010 2.200000 0.589864
v -0.308010 2.200000 -0.510136
v -0.308010 2.300000 -0.510136
v -0.308010 2.300000 -0.810136
v -0.308010 2.500000 -0.510136
v -0.308010 2.700000 -0.510136
v -0.308010 2.900000 -0.510135
v -0.308010 3.000000 -0.510135
v -0.308010 3.100000 -0.510135
v -0.308010 3.100000 -0.810135
v 0.191990 0.000000 0.189864
v 0.191990 0.000000 -0.210136
v 0.191990 1.300000 0.089864
v 0.191990 1.300000 -0.110136
v 0.191990 1.500000 0.089864
v 0.191990 1.500000 -0.110136
v 0.191990 1.600000 0.189864
v 0.191990 1.600000 -0.210136
v 0.591990 1.300000 0.089864
v 0.591990 1.300000 -0.110136
v 0.591990 2.200000 0.089864
v 0.591990 2.200000 -0.110135
v 1.291990 2.200000 1.189865
v 1.291990 2.200000 -0.510136
v 1.291990 2.500000 1.189865
v 1.291990 2.500000 -0.510136
v 1.291990 2.700000 1.189865
v 1.291990 2.700000 -0.510136
v 1.291990 2.900000 1.189865
v 1.291990 2.900000 -0.510135
v 1.291990 3.000000 1.189865
v 1.291990 3.000000 -0.510135
v 1.291990 3.500000 1.189865
v 1.291990 3.500000 -0.510135
v 1.291990 2.200000 1.189865
v -0.508010 2.500000 1.189865
v -0.508010 2.200000 1.189865
v 1.291990 2.500000 1.189865
v -0.508010 2.700000 1.189865
v 1.291990 2.700000 1.189865
v -0.508010 2.900000 1.189865
v 1.291990 2.900000 1.189865
v -0.508010 3.000000 1.189865
v 1.291990 3.000000 1.189865
v -0.508010 3.500000 1.189865
v 1.291990 3.500000 1.189865
v -0.508010 2.200000 0.589864
v -1.408010 2.300000 0.589864
v -1.408010 2.100000 0.589864
v -0.508010 2.300000 0.589864
v -1.408010 3.100000 0.589865
v -0.508010 2.500000 0.589864
v -0.508010 2.700000 0.589864
v -0.508010 2.900000 0.589865
v -0.508010 3.000000 0.589865
v -0.508010 3.100000 0.589865
v -0.308010 1.900000 0.589864
v -1.408010 1.900000 0.589864
v -0.308010 2.100000 0.589864
v -0.308010 2.200000 0.589864
v 0.191990 0.000000 0.189864
v -0.208010 1.600000 0.189864
v -0.208010 0.000000 0.189864
v 0.191990 1.600000 0.189864
v -0.508010 1.200000 0.089864
v -0.708010 1.900000 0.089864
v -0.708010 1.000000 0.089864
v -0.508010 1.900000 0.089864
v -0.208010 1.000000 0.089864
v -0.208010 1.200000 0.089864
v 0.391990 1.500000 0.089864
v 0.191990 1.500000 0.089864
v 0.191990 1.300000 0.089864
v 0.591990 1.300000 0.089864
v 0.391990 2.200000 0.089864
v 0.591990 2.200000 0.089864
v -0.708010 1.000000 -0.110136
v -0.708010 1.900000 -0.110136
v -0.508010 1.200000 -0.110136
v -0.508010 1.900000 -0.110136
v -0.208010 1.000000 -0.110136
v -0.208010 1.200000 -0.110136
v 0.191990 1.300000 -0.110136
v 0.191990 1.500000 -0.110136
v 0.391990 1.500000 -0.110136
v 0.591990 1.300000 -0.110136
v 0.391990 2.200000 -0.110135
v 0.591990 2.200000 -0.110135
v -0.208010 0.000000 -0.210136
v -0.208010 1.600000 -0.210136
v 0.191990 0.000000 -0.210136
v 0.191990 1.600000 -0.210136
v -0.508010 3.100000 -0.510135
v -0.508010 3.500000 -0.510135
v -0.308010 3.100000 -0.510135
v -0.308010 2.200000 -0.510136
v -0.308010 2.300000 -0.510136
v 1.291990 2.200000 -0.510136
v -0.308010 2.500000 -0.510136
v -0.308010 2.700000 -0.510136
v 1.291990 2.500000 -0.510136
v -0.308010 2.900000 -0.510135
v 1.291990 2.700000 -0.510136
v -0.308010 3.000000 -0.510135
v 1.291990 2.900000 -0.510135
v 1.291990 3.000000 -0.510135
v 1.291990 3.500000 -0.510135
v -1.408010 1.900000 -0.810136
v -1.408010 2.100000 -0.810136
v -0.308010 1.900000 -0.810136
v -1.408010 2.300000 -0.810136
v -0.308010 2.100000 -0.810136
v -1.408010 3.100000 -0.810135
v -0.308010 2.300000 -0.810136
v -0.308010 3.100000 -0.810135
v -0.208010 0.000000 -0.210136
v 0.191990 0.000000 0.189864
v -0.208010 0.000000 0.189864
v 0.191990 0.000000 -0.210136
v -0.708010 1.000000 -0.110136
v -0.208010 1.000000 0.089864
v -0.708010 1.000000 0.089864
v -0.208010 1.000000 -0.110136
v 0.191990 1.300000 -0.110136
v 0.591990 1.300000 0.089864
v 0.191990 1.300000 0.089864
v 0.591990 1.300000 -0.110136
v -0.708010 1.900000 0.089864
v -0.308010 1.900000 0.589864
v -1.408010 1.900000 0.589864
v -0.508010 1.900000 0.089864
v -0.708010 1.900000 -0.110136
v -0.508010 1.900000 -0.110136
v -1.408010 1.900000 -0.810136
v -0.308010 1.900000 -0.810136
v -0.508010 2.200000 0.589864
v 1.291990 2.200000 1.189865
v -0.508010 2.200000 1.189865
v -0.308010 2.200000 0.589864
v 0.391990 2.200000 0.089864
v 0.591990 2.200000 0.089864
v 0.391990 2.200000 -0.110135
v 0.591990 2.200000 -0.110135
v -0.308010 2.200000 -0.510136
v 1.291990 2.200000 -0.510136
v -0.508010 1.200000 0.089864
v -0.208010 1.200000 0.089864
v -0.508010 1.200000 -0.110136
v -0.208010 1.200000 -0.110136
v 0.191990 1.500000 0.089864
v 0.391990 1.500000 0.089864
v 0.191990 1.500000 -0.110136
v 0.391990 1.500000 -0.110136
v -0.208010 1.600000 0.189864
v 0.191990 1.600000 0.189864
v -0.208010 1.600000 -0.210136
v 0.191990 1.600000 -0.210136
v -1.408010 3.100000 0.589865
v -0.508010 3.100000 0.589865
v -0.508010 3.100000 -0.510135
v -1.408010 3.100000 -0.810135
v -0.308010 3.100000 -0.510135
v -0.308010 3.100000 -0.810135
v -0.508010 3.500000 1.189865
v 1.291990 3.500000 1.189865
v -0.508010 3.500000 -0.510135
v 1.291990 3.500000 -0.510135
vt 0.583984 0.500000
vt 0.583984 0.500000
vt 0.583984 0.500000
vt 0.583984 0.500000
vt 0.591797 0.500000
vt 0.591797 0.500000
vt 0.591797 0.500000
vt 0.591797 0.500000
vt 0.583984 0.500000
vt 0.583984 0.500000
vt 0.583984 0.500000
vt 0.583984 0.500000
vt 0.341797 0.500000
vt 0.341797 0.500000
vt 0.341797 0.500000
vt 0.341797 0.500000
vt 0.583984 0.500000
vt 0.583984 0.500000
vt 0.583984 0.500000
vt 0.583984 0.500000
vt 0.583984 0.500000
vt 0.591797 0.500000
vt 0.591797 0.500000
vt 0.591797 0.500000
vt 0.591797 0.500000
vt 0.583984 0.500000
vt 0.583984 0.500000
vt 0.583984 0.500000
vt 0.583984 0.500000
vt 0.591797 0.500000
vt 0.591797 0.500000
vt 0.591797 0.500000
vt 0.591797 0.500000
vt 0.583984 0.500000
vt 0.583984 0.500000
vt 0.583984 0.500000
vt 0.583984 0.500000
vt 0.583984 0.500000
vt 0.583984 0.500000
vt 0.341797 0.500000
vt 0.341797 0.500000
vt 0.341797 0.500000
vt 0.341797 0.500000
vt 0.341797 0.500000
vt 0.341797 0.500000
vt 0.341797 0.500000
vt 0.341797 0.500000
vt 0.341797 0.500000
vt 0.341797 0.500000
vt 0.341797 0.500000
vt 0.341797 0.500000
vt 0.341797 0.500000
vt 0.341797 0.500000
vt 0.341797 0.500000
vt 0.341797 0.500000
vt 0.583984 0.500000
vt 0.583984 0.500000
vt 0.583984 0.500000
vt 0.583984 0.500000
vt 0.591797 0.500000
vt 0.591797 0.500000
vt 0.591797 0.500000
vt 0.591797 0.500000
vt 0.591797 0.500000
vt 0.591797 0.500000
vt 0.583984 0.500000
vt 0.583984 0.500000
vt 0.583984 0.500000
vt 0.583984 0.500000
vt 0.583984 0.500000
vt 0.583984 0.500000
vt 0.583984 0.500000
vt 0.583984 0.500000
vt 0.341797 0.500000
vt 0.341797 0.500000
vt 0.341797 0.500000
vt 0.341797 0.500000
vt 0.341797 0.500000
vt 0.341797 0.500000
vt 0.341797 0.500000
vt 0.341797 0.500000
vt 0.341797 0.500000
vt 0.341797 0.500000
vt 0.341797 0.500000
vt 0.341797 0.500000
vt 0.583984 0.500000
vt 0.583984 0.500000
vt 0.583984 0.500000
vt 0.583984 0.500000
vt 0.591797 0.500000
vt 0.591797 0.500000
vt 0.591797 0.500000
vt 0.591797 0.500000
vt 0.583984 0.500000
vt 0.583984 0.500000
vt 0.583984 0.500000
vt 0.583984 0.500000
vt 0.591797 0.500000
vt 0.591797 0.500000
vt 0.591797 0.500000
vt 0.591797 0.500000
vt 0.583984 0.500000
vt 0.583984 0.500000
vt 0.583984 0.500000
vt 0.583984 0.500000
vt 0.583984 0.500000
vt 0.583984 0.500000
vt 0.583984 0.500000
vt 0.591797 0.500000
vt 0.591797 0.500000
vt 0.591797 0.500000
vt 0.583984 0.500000
vt 0.583984 0.500000
vt 0.583984 0.500000
vt 0.583984 0.500000
vt 0.591797 0.500000
vt 0.591797 0.500000
vt 0.591797 0.500000
vt 0.591797 0.500000
vt 0.583984 0.500000
vt 0.583984 0.500000
vt 0.583984 0.500000
vt 0.583984 0.500000
vt 0.591797 0.500000
vt 0.583984 0.500000
vt 0.591797 0.500000
vt 0.591797 0.500000
vt 0.591797 0.500000
vt 0.583984 0.500000
vt 0.583984 0.500000
vt 0.583984 0.500000
vt 0.591797 0.500000
vt 0.583984 0.500000
vt 0.583984 0.500000
vt 0.583984 0.500000
vt 0.583984 0.500000
vt 0.583984 0.500000
vt 0.583984 0.500000
vt 0.583984 0.500000
vt 0.583984 0.500000
vt 0.591797 0.500000
vt 0.583984 0.500000
vt 0.591797 0.500000
vt 0.341797 0.500000
vt 0.341797 0.500000
vt 0.341797 0.500000
vt 0.341797 0.500000
vt 0.341797 0.500000
vt 0.341797 0.500000
vt 0.341797 0.500000
vt 0.341797 0.500000
vt 0.341797 0.500000
vt 0.341797 0.500000
vt 0.341797 0.500000
vt 0.341797 0.500000
vt 0.341797 0.500000
vt 0.341797 0.500000
vt 0.341797 0.500000
vt 0.341797 0.500000
vt 0.341797 0.500000
vt 0.341797 0.500000
vt 0.341797 0.500000
vt 0.341797 0.500000
vt 0.341797 0.500000
vt 0.341797 0.500000
vt 0.341797 0.500000
vt 0.341797 0.500000
vt 0.341797 0.500000
vt 0.341797 0.500000
vt 0.341797 0.500000
vt 0.341797 0.500000
vt 0.341797 0.500000
vt 0.341797 0.500000
vt 0.341797 0.500000
vt 0.341797 0.500000
vt 0.583984 0.500000
vt 0.583984 0.500000
vt 0.583984 0.500000
vt 0.583984 0.500000
vt 0.583984 0.500000
vt 0.583984 0.500000
vt 0.583984 0.500000
vt 0.591797 0.500000
vt 0.591797 0.500000
vt 0.591797 0.500000
vt 0.583984 0.500000
vt 0.583984 0.500000
vt 0.583984 0.500000
vt 0.583984 0.500000
vt 0.591797 0.500000
vt 0.591797 0.500000
vt 0.591797 0.500000
vt 0.591797 0.500000
vt 0.583984 0.500000
vt 0.583984 0.500000
vt 0.583984 0.500000
vt 0.591797 0.500000
vt 0.583984 0.500000
vt 0.583984 0.500000
vt 0.583984 0.500000
vt 0.583984 0.500000
vt 0.591797 0.500000
vt 0.591797 0.500000
vt 0.591797 0.500000
vt 0.583984 0.500000
vt 0.583984 0.500000
vt 0.583984 0.500000
vt 0.583984 0.500000
vt 0.591797 0.500000
vt 0.583984 0.500000
vt 0.341797 0.500000
vt 0.341797 0.500000
vt 0.341797 0.500000
vt 0.341797 0.500000
vt 0.341797 0.500000
vt 0.341797 0.500000
vt 0.341797 0.500000
vt 0.341797 0.500000
vt 0.341797 0.500000
vt 0.341797 0.500000
vt 0.341797 0.500000
vt 0.341797 0.500000
vt 0.583984 0.500000
vt 0.583984 0.500000
vt 0.583984 0.500000
vt 0.583984 0.500000
vt 0.583984 0.500000
vt 0.583984 0.500000
vt 0.583984 0.500000
vt 0.583984 0.500000
vt 0.583984 0.500000
vt 0.583984 0.500000
vt 0.583984 0.500000
vt 0.583984 0.500000
vt 0.583984 0.500000
vt 0.583984 0.500000
vt 0.583984 0.500000
vt 0.583984 0.500000
vt 0.583984 0.500000
vt 0.583984 0.500000
vt 0.341797 0.500000
vt 0.341797 0.500000
vt 0.341797 0.500000
vt 0.341797 0.500000
vt 0.341797 0.500000
vt 0.341797 0.500000
vt 0.341797 0.500000
vt 0.341797 0.500000
vt 0.341797 0.500000
vt 0.341797 0.500000
vt 0.341797 0.500000
vt 0.341797 0.500000
vt 0.583984 0.500000
vt 0.583984 0.500000
vt 0.583984 0.500000
vt 0.583984 0.500000
vt 0.583984 0.500000
vt 0.583984 0.500000
vt 0.583984 0.500000
vt 0.583984 0.500000
vt 0.583984 0.500000
vt 0.583984 0.500000
vn -1.0000 -0.0000 0.0000
vn 1.0000 0.0000 0.0000
vn 0.0000 0.0000 1.0000
vn 0.0000 0.0000 -1.0000
vn 0.0000 -1.0000 -0.0000
vn 0.0000 1.0000 0.0000
usemtl palette.003
s 1
f 1/1/1 2/2/1 3/3/1
f 4/4/1 2/2/1 1/1/1
f 5/5/1 4/6/1 1/7/1
f 6/8/1 4/6/1 5/5/1
f 7/9/1 6/10/1 5/11/1
f 8/12/1 6/10/1 7/9/1
f 9/13/1 10/14/1 11/15/1
f 12/16/1 10/14/1 9/13/1
f 13/17/1 14/18/1 15/19/1
f 16/20/1 13/17/1 15/19/1
f 17/21/1 13/17/1 16/20/1
f 18/22/1 17/23/1 16/24/1
f 19/25/1 17/23/1 18/22/1
f 20/26/1 19/27/1 18/28/1
f 21/29/1 19/27/1 20/26/1
f 22/30/1 21/31/1 20/32/1
f 23/33/1 21/31/1 22/30/1
f 24/34/1 23/35/1 22/36/1
f 25/37/1 24/34/1 22/36/1
f 25/37/1 26/38/1 24/34/1
f 27/39/1 26/38/1 25/37/1
f 28/40/1 29/41/1 30/42/1
f 31/43/1 29/41/1 28/40/1
f 32/44/1 28/40/1 30/42/1
f 33/45/1 29/41/1 31/43/1
f 34/46/1 32/44/1 30/42/1
f 34/46/1 33/45/1 32/44/1
f 35/47/1 29/41/1 33/45/1
f 35/47/1 33/45/1 34/46/1
f 36/48/1 37/49/1 38/50/1
f 39/51/1 37/49/1 36/48/1
f 40/52/2 41/53/2 42/54/2
f 42/54/2 41/53/2 43/55/2
f 44/56/2 45/57/2 46/58/2
f 46/58/2 45/57/2 47/59/2
f 46/60/2 47/61/2 48/62/2
f 48/62/2 47/61/2 49/63/2
f 49/63/2 47/61/2 50/64/2
f 50/64/2 47/61/2 51/65/2
f 50/66/2 51/67/2 52/68/2
f 52/68/2 51/67/2 53/69/2
f 53/69/2 51/67/2 54/70/2
f 54/70/2 51/67/2 55/71/2
f 55/71/2 51/67/2 56/72/2
f 56/72/2 51/67/2 57/73/2
f 58/74/2 59/75/2 60/76/2
f 60/76/2 59/75/2 61/77/2
f 58/74/2 60/76/2 62/78/2
f 61/77/2 59/75/2 63/79/2
f 58/74/2 62/78/2 64/80/2
f 62/78/2 63/79/2 64/80/2
f 63/79/2 59/75/2 65/81/2
f 64/80/2 63/79/2 65/81/2
f 66/82/2 67/83/2 68/84/2
f 68/84/2 67/83/2 69/85/2
f 70/86/2 71/87/2 72/88/2
f 72/88/2 71/87/2 73/89/2
f 72/90/2 73/91/2 74/92/2
f 74/92/2 73/91/2 75/93/2
f 74/94/2 75/95/2 76/96/2
f 76/96/2 75/95/2 77/97/2
f 76/98/2 77/99/2 78/100/2
f 78/100/2 77/99/2 79/101/2
f 78/102/2 79/103/2 80/104/2
f 80/104/2 79/103/2 81/105/2
f 82/106/3 83/107/3 84/108/3
f 85/109/3 86/110/3 83/111/3
f 85/112/3 83/107/3 82/106/3
f 87/113/3 88/114/3 86/115/3
f 87/116/3 86/110/3 85/109/3
f 89/117/3 90/118/3 88/119/3
f 89/120/3 88/114/3 87/113/3
f 91/121/3 92/122/3 90/123/3
f 91/124/3 90/118/3 89/117/3
f 93/125/3 92/122/3 91/121/3
f 94/126/3 95/127/3 96/128/3
f 97/129/3 98/130/3 95/131/3
f 97/132/3 95/127/3 94/126/3
f 99/133/3 98/130/3 97/129/3
f 100/134/3 98/130/3 99/133/3
f 101/135/3 98/130/3 100/134/3
f 102/136/3 98/130/3 101/135/3
f 103/137/3 98/130/3 102/136/3
f 104/138/3 96/139/3 105/140/3
f 106/141/3 94/126/3 96/128/3
f 106/142/3 96/139/3 104/138/3
f 107/143/3 94/126/3 106/141/3
f 108/144/3 109/145/3 110/146/3
f 111/147/3 109/145/3 108/144/3
f 112/148/3 113/149/3 114/150/3
f 115/151/3 113/149/3 112/148/3
f 116/152/3 112/148/3 114/150/3
f 117/153/3 112/148/3 116/152/3
f 118/154/3 119/155/3 120/156/3
f 121/157/3 118/154/3 120/156/3
f 121/157/3 122/158/3 118/154/3
f 123/159/3 122/158/3 121/157/3
f 124/160/4 125/161/4 126/162/4
f 126/162/4 125/161/4 127/163/4
f 124/160/4 126/162/4 128/164/4
f 128/164/4 126/162/4 129/165/4
f 130/166/4 131/167/4 132/168/4
f 130/166/4 132/168/4 133/169/4
f 132/168/4 134/170/4 133/169/4
f 133/169/4 134/170/4 135/171/4
f 136/172/4 137/173/4 138/174/4
f 138/174/4 137/173/4 139/175/4
f 140/176/4 141/177/4 142/178/4
f 143/179/4 144/180/4 145/181/4
f 144/180/4 146/182/4 145/181/4
f 146/183/4 147/184/4 148/185/4
f 145/181/4 146/182/4 148/186/4
f 147/187/4 149/188/4 150/189/4
f 148/185/4 147/184/4 150/190/4
f 149/191/4 151/192/4 152/193/4
f 150/189/4 149/188/4 152/194/4
f 151/195/4 142/178/4 153/196/4
f 152/193/4 151/192/4 153/197/4
f 142/178/4 141/177/4 154/198/4
f 153/196/4 142/178/4 154/198/4
f 155/199/4 156/200/4 157/201/4
f 156/202/4 158/203/4 159/204/4
f 157/201/4 156/200/4 159/205/4
f 158/206/4 160/207/4 161/208/4
f 159/204/4 158/203/4 161/209/4
f 161/208/4 160/207/4 162/210/4
f 163/211/5 164/212/5 165/213/5
f 166/214/5 164/212/5 163/211/5
f 167/215/5 168/216/5 169/217/5
f 170/218/5 168/216/5 167/215/5
f 171/219/5 172/220/5 173/221/5
f 174/222/5 172/220/5 171/219/5
f 175/223/5 176/224/5 177/225/5
f 178/226/5 176/224/5 175/223/5
f 179/227/5 175/223/5 177/225/5
f 180/228/5 176/224/5 178/226/5
f 181/229/5 179/227/5 177/225/5
f 181/229/5 180/228/5 179/227/5
f 182/230/5 176/224/5 180/228/5
f 182/230/5 180/228/5 181/229/5
f 183/231/5 184/232/5 185/233/5
f 186/234/5 184/232/5 183/231/5
f 187/235/5 184/232/5 186/234/5
f 188/236/5 184/232/5 187/235/5
f 189/237/5 187/235/5 186/234/5
f 190/238/5 184/232/5 188/236/5
f 191/239/5 189/237/5 186/234/5
f 191/239/5 190/238/5 189/237/5
f 192/240/5 184/232/5 190/238/5
f 192/240/5 190/238/5 191/239/5
f 193/241/6 194/242/6 195/243/6
f 195/243/6 194/242/6 196/244/6
f 197/245/6 198/246/6 199/247/6
f 199/247/6 198/246/6 200/248/6
f 201/249/6 202/250/6 203/251/6
f 203/251/6 202/250/6 204/252/6
f 205/253/6 206/254/6 207/255/6
f 205/253/6 207/255/6 208/256/6
f 207/255/6 209/257/6 208/256/6
f 208/256/6 209/257/6 210/258/6
f 211/259/6 212/260/6 213/261/6
f 213/261/6 212/260/6 214/262/6
