# MagicaVoxel @ Ephtracy

# group
o 

# material
mtllib FanBody.mtl
usemtl palette

# normals
vn -1 0 0
vn 1 0 0
vn 0 0 1
vn 0 0 -1
vn 0 -1 0
vn 0 1 0

# texcoords
vt 0.185547 0.5
vt 0.505859 0.5
vt 0.994141 0.5

# verts
v 0.5 2 -0.5
v 0.5 2 -1.5
v 0.5 2.2 -0.5
v 0.5 2.2 -1.5
v 0.6 2.2 -0.6
v 0.6 2.2 -1.4
v 0.6 2.3 -0.6
v 0.6 2.3 -1.4
v 0.7 3 -0.4
v 0.7 3 -1.4
v 0.7 3.5 -0.4
v 0.7 3.5 -1.4
v 0.8 2.3 -0.8
v 0.8 2.3 -1.2
v 0.8 3 -0.8
v 0.8 3 -1.2
v 1.2 2.3 -0.8
v 1.2 2.3 -1.2
v 1.2 3 -0.8
v 1.2 3 -1.2
v 1.3 3 -0.4
v 1.3 3 -1.4
v 1.3 3.5 -0.4
v 1.3 3.5 -1.4
v 1.4 2.2 -0.6
v 1.4 2.2 -1.4
v 1.4 2.3 -0.6
v 1.4 2.3 -1.4
v 1.5 2 -0.5
v 1.5 2 -1.5
v 1.5 2.2 -0.5
v 1.5 2.2 -1.5
v 0.7 3 -0.4
v 0.7 3.5 -0.4
v 1.3 3 -0.4
v 1.3 3.5 -0.4
v 0.5 2 -0.5
v 0.5 2.2 -0.5
v 1.5 2 -0.5
v 1.5 2.2 -0.5
v 0.6 2.2 -0.6
v 0.6 2.3 -0.6
v 1.4 2.2 -0.6
v 1.4 2.3 -0.6
v 0.8 2.3 -0.8
v 0.8 3 -0.8
v 1.2 2.3 -0.8
v 1.2 3 -0.8
v 0.8 2.3 -1.2
v 0.8 3 -1.2
v 1.2 2.3 -1.2
v 1.2 3 -1.2
v 0.6 2.2 -1.4
v 0.6 2.3 -1.4
v 0.7 3 -1.4
v 0.7 3.5 -1.4
v 1.3 3 -1.4
v 1.3 3.5 -1.4
v 1.4 2.2 -1.4
v 1.4 2.3 -1.4
v 0.5 2 -1.5
v 0.5 2.2 -1.5
v 1.5 2 -1.5
v 1.5 2.2 -1.5
v 0.5 2 -0.5
v 1.5 2 -0.5
v 0.5 2 -1.5
v 1.5 2 -1.5
v 0.7 3 -0.4
v 1.3 3 -0.4
v 0.8 3 -0.8
v 1.2 3 -0.8
v 0.8 3 -1.2
v 1.2 3 -1.2
v 0.7 3 -1.4
v 1.3 3 -1.4
v 0.5 2.2 -0.5
v 1.5 2.2 -0.5
v 0.6 2.2 -0.6
v 1.4 2.2 -0.6
v 0.6 2.2 -1.4
v 1.4 2.2 -1.4
v 0.5 2.2 -1.5
v 1.5 2.2 -1.5
v 0.6 2.3 -0.6
v 1.4 2.3 -0.6
v 0.8 2.3 -0.8
v 1.2 2.3 -0.8
v 0.8 2.3 -1.2
v 1.2 2.3 -1.2
v 0.6 2.3 -1.4
v 1.4 2.3 -1.4
v 0.7 3.5 -0.4
v 1.3 3.5 -0.4
v 0.7 3.5 -1.4
v 1.3 3.5 -1.4

# faces
f 3/2/1 2/2/1 1/2/1
f 4/2/1 2/2/1 3/2/1
f 7/2/1 6/2/1 5/2/1
f 8/2/1 6/2/1 7/2/1
f 11/1/1 10/1/1 9/1/1
f 12/1/1 10/1/1 11/1/1
f 15/2/1 14/2/1 13/2/1
f 16/2/1 14/2/1 15/2/1
f 17/2/2 18/2/2 19/2/2
f 19/2/2 18/2/2 20/2/2
f 21/1/2 22/1/2 23/1/2
f 23/1/2 22/1/2 24/1/2
f 25/2/2 26/2/2 27/2/2
f 27/2/2 26/2/2 28/2/2
f 29/2/2 30/2/2 31/2/2
f 31/2/2 30/2/2 32/2/2
f 35/1/3 34/1/3 33/1/3
f 36/1/3 34/1/3 35/1/3
f 39/2/3 38/2/3 37/2/3
f 40/2/3 38/2/3 39/2/3
f 43/2/3 42/2/3 41/2/3
f 44/2/3 42/2/3 43/2/3
f 47/2/3 46/2/3 45/2/3
f 48/2/3 46/2/3 47/2/3
f 49/2/4 50/2/4 51/2/4
f 51/2/4 50/2/4 52/2/4
f 55/1/4 56/1/4 57/1/4
f 57/1/4 56/1/4 58/1/4
f 53/2/4 54/2/4 59/2/4
f 59/2/4 54/2/4 60/2/4
f 61/2/4 62/2/4 63/2/4
f 63/2/4 62/2/4 64/2/4
f 67/2/5 66/2/5 65/2/5
f 68/2/5 66/2/5 67/2/5
f 71/1/5 70/1/5 69/1/5
f 72/1/5 70/1/5 71/1/5
f 73/1/5 71/1/5 69/1/5
f 74/1/5 70/1/5 72/1/5
f 75/1/5 73/1/5 69/1/5
f 75/1/5 74/1/5 73/1/5
f 76/1/5 70/1/5 74/1/5
f 76/1/5 74/1/5 75/1/5
f 77/2/6 78/2/6 79/2/6
f 79/2/6 78/2/6 80/2/6
f 77/2/6 79/2/6 81/2/6
f 80/2/6 78/2/6 82/2/6
f 77/2/6 81/2/6 83/2/6
f 81/2/6 82/2/6 83/2/6
f 82/2/6 78/2/6 84/2/6
f 83/2/6 82/2/6 84/2/6
f 85/2/6 86/2/6 87/2/6
f 87/2/6 86/2/6 88/2/6
f 85/2/6 87/2/6 89/2/6
f 88/2/6 86/2/6 90/2/6
f 85/2/6 89/2/6 91/2/6
f 89/2/6 90/2/6 91/2/6
f 90/2/6 86/2/6 92/2/6
f 91/2/6 90/2/6 92/2/6
f 93/1/6 94/1/6 95/1/6
f 95/1/6 94/1/6 96/1/6
