# MagicaVoxel @ Ephtracy

# group
o 

# material
mtllib FanPropeller.mtl
usemtl palette

# normals
vn -1 0 0
vn 1 0 0
vn 0 0 1
vn 0 0 -1
vn 0 -1 0
vn 0 1 0

# texcoords
vt 0.935547 0.5
vt 0.962891 0.5

# verts
v 0.3 3.1 -0.2
v 0.3 3.1 -0.3
v 0.3 3.5 -0.2
v 0.3 3.5 -0.3
v 0.4 3 -0.2
v 0.4 3 -0.3
v 0.4 3.1 -0.2
v 0.4 3.1 -0.3
v 0.9 3.2 -0.3
v 0.9 3.2 -0.4
v 0.9 3.3 -0.3
v 0.9 3.4 -0.3
v 0.9 3.4 -0.4
v 1 3.3 -0.2
v 1 3.3 -0.3
v 1 3.4 -0.2
v 1 3.4 -0.3
v 1.1 3.4 -0.2
v 1.1 3.4 -0.3
v 1.1 3.5 -0.2
v 1.1 3.5 -0.3
v 1.2 3.5 -0.2
v 1.2 3.5 -0.3
v 1.2 3.6 -0.2
v 1.2 3.6 -0.3
v 1.4 3.2 -0.2
v 1.4 3.2 -0.3
v 1.4 3.3 -0.2
v 1.4 3.3 -0.3
v 1.6 3.1 -0.2
v 1.6 3.1 -0.3
v 1.6 3.2 -0.2
v 1.6 3.2 -0.3
v 0.4 3.4 -0.2
v 0.4 3.4 -0.3
v 0.4 3.5 -0.2
v 0.4 3.5 -0.3
v 0.6 3.3 -0.2
v 0.6 3.3 -0.3
v 0.6 3.4 -0.2
v 0.6 3.4 -0.3
v 0.8 3 -0.2
v 0.8 3 -0.3
v 0.8 3.1 -0.2
v 0.8 3.1 -0.3
v 0.9 3.1 -0.2
v 0.9 3.1 -0.3
v 0.9 3.2 -0.2
v 0.9 3.2 -0.3
v 1 3.2 -0.2
v 1 3.2 -0.3
v 1 3.3 -0.2
v 1 3.3 -0.3
v 1.1 3.2 -0.3
v 1.1 3.2 -0.4
v 1.1 3.3 -0.3
v 1.1 3.4 -0.3
v 1.1 3.4 -0.4
v 1.6 3.5 -0.2
v 1.6 3.5 -0.3
v 1.6 3.6 -0.2
v 1.6 3.6 -0.3
v 1.7 3.1 -0.2
v 1.7 3.1 -0.3
v 1.7 3.5 -0.2
v 1.7 3.5 -0.3
v 0.3 3.1 -0.2
v 0.3 3.5 -0.2
v 0.4 3 -0.2
v 0.4 3.1 -0.2
v 0.4 3.4 -0.2
v 0.4 3.5 -0.2
v 0.6 3.3 -0.2
v 0.6 3.4 -0.2
v 0.8 3 -0.2
v 0.8 3.1 -0.2
v 0.9 3.1 -0.2
v 0.9 3.2 -0.2
v 1 3.2 -0.2
v 1 3.3 -0.2
v 1 3.4 -0.2
v 1.1 3.4 -0.2
v 1.1 3.5 -0.2
v 1.2 3.5 -0.2
v 1.2 3.6 -0.2
v 1.4 3.2 -0.2
v 1.4 3.3 -0.2
v 1.6 3.1 -0.2
v 1.6 3.2 -0.2
v 1.6 3.5 -0.2
v 1.6 3.6 -0.2
v 1.7 3.1 -0.2
v 1.7 3.5 -0.2
v 0.9 3.3 -0.3
v 0.9 3.4 -0.3
v 1 3.2 -0.3
v 1 3.3 -0.3
v 1 3.4 -0.3
v 1.1 3.2 -0.3
v 1.1 3.3 -0.3
v 0.3 3.1 -0.3
v 0.3 3.5 -0.3
v 0.4 3 -0.3
v 0.4 3.1 -0.3
v 0.4 3.4 -0.3
v 0.4 3.5 -0.3
v 0.6 3.3 -0.3
v 0.6 3.4 -0.3
v 0.8 3 -0.3
v 0.8 3.1 -0.3
v 0.9 3.1 -0.3
v 0.9 3.2 -0.3
v 0.9 3.3 -0.3
v 1.1 3.3 -0.3
v 1.1 3.4 -0.3
v 1.1 3.5 -0.3
v 1.2 3.5 -0.3
v 1.2 3.6 -0.3
v 1.4 3.2 -0.3
v 1.4 3.3 -0.3
v 1.6 3.1 -0.3
v 1.6 3.2 -0.3
v 1.6 3.5 -0.3
v 1.6 3.6 -0.3
v 1.7 3.1 -0.3
v 1.7 3.5 -0.3
v 0.9 3.2 -0.4
v 0.9 3.4 -0.4
v 1.1 3.2 -0.4
v 1.1 3.4 -0.4
v 0.4 3 -0.2
v 0.8 3 -0.2
v 0.4 3 -0.3
v 0.8 3 -0.3
v 0.3 3.1 -0.2
v 0.4 3.1 -0.2
v 0.8 3.1 -0.2
v 0.9 3.1 -0.2
v 1.6 3.1 -0.2
v 1.7 3.1 -0.2
v 0.3 3.1 -0.3
v 0.4 3.1 -0.3
v 0.8 3.1 -0.3
v 0.9 3.1 -0.3
v 1.6 3.1 -0.3
v 1.7 3.1 -0.3
v 0.9 3.2 -0.2
v 1 3.2 -0.2
v 1.4 3.2 -0.2
v 1.6 3.2 -0.2
v 0.9 3.2 -0.3
v 1 3.2 -0.3
v 1.1 3.2 -0.3
v 1.4 3.2 -0.3
v 1.6 3.2 -0.3
v 0.9 3.2 -0.4
v 1.1 3.2 -0.4
v 1 3.3 -0.2
v 1.4 3.3 -0.2
v 1 3.3 -0.3
v 1.1 3.3 -0.3
v 1.4 3.3 -0.3
v 0.6 3.3 -0.2
v 1 3.3 -0.2
v 0.6 3.3 -0.3
v 0.9 3.3 -0.3
v 1 3.3 -0.3
v 0.4 3.4 -0.2
v 0.6 3.4 -0.2
v 1 3.4 -0.2
v 1.1 3.4 -0.2
v 0.4 3.4 -0.3
v 0.6 3.4 -0.3
v 0.9 3.4 -0.3
v 1 3.4 -0.3
v 1.1 3.4 -0.3
v 0.9 3.4 -0.4
v 1.1 3.4 -0.4
v 0.3 3.5 -0.2
v 0.4 3.5 -0.2
v 1.1 3.5 -0.2
v 1.2 3.5 -0.2
v 1.6 3.5 -0.2
v 1.7 3.5 -0.2
v 0.3 3.5 -0.3
v 0.4 3.5 -0.3
v 1.1 3.5 -0.3
v 1.2 3.5 -0.3
v 1.6 3.5 -0.3
v 1.7 3.5 -0.3
v 1.2 3.6 -0.2
v 1.6 3.6 -0.2
v 1.2 3.6 -0.3
v 1.6 3.6 -0.3

# faces
f 3/1/1 2/1/1 1/1/1
f 4/1/1 2/1/1 3/1/1
f 7/1/1 6/1/1 5/1/1
f 8/1/1 6/1/1 7/1/1
f 11/2/1 10/2/1 9/2/1
f 12/2/1 10/2/1 11/2/1
f 13/2/1 10/2/1 12/2/1
f 16/1/1 15/1/1 14/1/1
f 17/1/1 15/1/1 16/1/1
f 20/1/1 19/1/1 18/1/1
f 21/1/1 19/1/1 20/1/1
f 24/1/1 23/1/1 22/1/1
f 25/1/1 23/1/1 24/1/1
f 28/1/1 27/1/1 26/1/1
f 29/1/1 27/1/1 28/1/1
f 32/1/1 31/1/1 30/1/1
f 33/1/1 31/1/1 32/1/1
f 34/1/2 35/1/2 36/1/2
f 36/1/2 35/1/2 37/1/2
f 38/1/2 39/1/2 40/1/2
f 40/1/2 39/1/2 41/1/2
f 42/1/2 43/1/2 44/1/2
f 44/1/2 43/1/2 45/1/2
f 46/1/2 47/1/2 48/1/2
f 48/1/2 47/1/2 49/1/2
f 50/1/2 51/1/2 52/1/2
f 52/1/2 51/1/2 53/1/2
f 54/2/2 55/2/2 56/2/2
f 56/2/2 55/2/2 57/2/2
f 57/2/2 55/2/2 58/2/2
f 59/1/2 60/1/2 61/1/2
f 61/1/2 60/1/2 62/1/2
f 63/1/2 64/1/2 65/1/2
f 65/1/2 64/1/2 66/1/2
f 70/1/3 68/1/3 67/1/3
f 71/1/3 68/1/3 70/1/3
f 72/1/3 68/1/3 71/1/3
f 73/1/3 70/1/3 69/1/3
f 73/1/3 71/1/3 70/1/3
f 74/1/3 71/1/3 73/1/3
f 75/1/3 73/1/3 69/1/3
f 76/1/3 73/1/3 75/1/3
f 77/1/3 73/1/3 76/1/3
f 78/1/3 73/1/3 77/1/3
f 79/1/3 73/1/3 78/1/3
f 80/1/3 73/1/3 79/1/3
f 82/1/3 81/1/3 80/1/3
f 84/1/3 83/1/3 82/1/3
f 87/1/3 84/1/3 82/1/3
f 87/1/3 85/1/3 84/1/3
f 87/1/3 82/1/3 80/1/3
f 89/1/3 87/1/3 86/1/3
f 90/1/3 85/1/3 87/1/3
f 90/1/3 87/1/3 89/1/3
f 91/1/3 85/1/3 90/1/3
f 92/1/3 89/1/3 88/1/3
f 92/1/3 90/1/3 89/1/3
f 93/1/3 90/1/3 92/1/3
f 97/2/3 95/2/3 94/2/3
f 98/2/3 95/2/3 97/2/3
f 99/2/3 97/2/3 96/2/3
f 100/2/3 97/2/3 99/2/3
f 101/1/4 102/1/4 104/1/4
f 104/1/4 102/1/4 105/1/4
f 105/1/4 102/1/4 106/1/4
f 103/1/4 104/1/4 107/1/4
f 104/1/4 105/1/4 107/1/4
f 107/1/4 105/1/4 108/1/4
f 103/1/4 107/1/4 109/1/4
f 109/1/4 107/1/4 110/1/4
f 110/1/4 107/1/4 111/1/4
f 111/1/4 107/1/4 112/1/4
f 112/1/4 107/1/4 113/1/4
f 114/1/4 115/1/4 117/1/4
f 115/1/4 116/1/4 117/1/4
f 114/1/4 117/1/4 120/1/4
f 117/1/4 118/1/4 120/1/4
f 119/1/4 120/1/4 122/1/4
f 120/1/4 118/1/4 123/1/4
f 122/1/4 120/1/4 123/1/4
f 123/1/4 118/1/4 124/1/4
f 121/1/4 122/1/4 125/1/4
f 122/1/4 123/1/4 125/1/4
f 125/1/4 123/1/4 126/1/4
f 127/2/4 128/2/4 129/2/4
f 129/2/4 128/2/4 130/2/4
f 133/1/5 132/1/5 131/1/5
f 134/1/5 132/1/5 133/1/5
f 141/1/5 136/1/5 135/1/5
f 142/1/5 136/1/5 141/1/5
f 143/1/5 138/1/5 137/1/5
f 144/1/5 138/1/5 143/1/5
f 145/1/5 140/1/5 139/1/5
f 146/1/5 140/1/5 145/1/5
f 151/1/5 148/1/5 147/1/5
f 152/1/5 148/1/5 151/1/5
f 154/1/5 150/1/5 149/1/5
f 155/1/5 150/1/5 154/1/5
f 156/2/5 153/2/5 152/2/5
f 156/2/5 152/2/5 151/2/5
f 157/2/5 153/2/5 156/2/5
f 160/1/5 159/1/5 158/1/5
f 161/1/5 159/1/5 160/1/5
f 162/1/5 159/1/5 161/1/5
f 163/1/6 164/1/6 165/1/6
f 165/1/6 164/1/6 166/1/6
f 166/1/6 164/1/6 167/1/6
f 168/1/6 169/1/6 172/1/6
f 172/1/6 169/1/6 173/1/6
f 170/1/6 171/1/6 175/1/6
f 175/1/6 171/1/6 176/1/6
f 174/2/6 175/2/6 177/2/6
f 175/2/6 176/2/6 177/2/6
f 177/2/6 176/2/6 178/2/6
f 179/1/6 180/1/6 185/1/6
f 185/1/6 180/1/6 186/1/6
f 181/1/6 182/1/6 187/1/6
f 187/1/6 182/1/6 188/1/6
f 183/1/6 184/1/6 189/1/6
f 189/1/6 184/1/6 190/1/6
f 191/1/6 192/1/6 193/1/6
f 193/1/6 192/1/6 194/1/6
