# Blender v2.79 (sub 0) OBJ File: ''
# www.blender.org
mtllib FanPropeller_center.mtl
o FanPropeller
v -0.700000 0.199998 0.063402
v -0.700000 -0.200002 -0.036598
v -0.700000 -0.200002 0.063402
v -0.700000 0.199998 -0.036598
v -0.600000 -0.200002 0.063402
v -0.600000 -0.300002 -0.036598
v -0.600000 -0.300002 0.063402
v -0.600000 -0.200002 -0.036598
v -0.100000 -0.000002 -0.036598
v -0.100000 -0.100002 -0.136598
v -0.100000 -0.100002 -0.036598
v -0.100000 0.099998 -0.036598
v -0.100000 0.099998 -0.136598
v 0.000000 0.099998 0.063402
v 0.000000 -0.000002 -0.036598
v 0.000000 -0.000002 0.063402
v 0.000000 0.099998 -0.036598
v 0.100000 0.199998 0.063402
v 0.100000 0.099998 -0.036598
v 0.100000 0.099998 0.063402
v 0.100000 0.199998 -0.036598
v 0.200000 0.299998 0.063402
v 0.200000 0.199998 -0.036598
v 0.200000 0.199998 0.063402
v 0.200000 0.299998 -0.036598
v 0.400000 -0.000002 0.063402
v 0.400000 -0.100002 -0.036598
v 0.400000 -0.100002 0.063402
v 0.400000 -0.000002 -0.036598
v 0.600000 -0.100002 0.063402
v 0.600000 -0.200002 -0.036598
v 0.600000 -0.200002 0.063402
v 0.600000 -0.100002 -0.036598
v -0.600000 0.099998 0.063402
v -0.600000 0.099998 -0.036598
v -0.600000 0.199998 0.063402
v -0.600000 0.199998 -0.036598
v -0.400000 -0.000002 0.063402
v -0.400000 -0.000002 -0.036598
v -0.400000 0.099998 0.063402
v -0.400000 0.099998 -0.036598
v -0.200000 -0.300002 0.063402
v -0.200000 -0.300002 -0.036598
v -0.200000 -0.200002 0.063402
v -0.200000 -0.200002 -0.036598
v -0.100000 -0.200002 0.063402
v -0.100000 -0.200002 -0.036598
v -0.100000 -0.100002 0.063402
v -0.100000 -0.100002 -0.036598
v 0.000000 -0.100002 0.063402
v 0.000000 -0.100002 -0.036598
v 0.000000 -0.000002 0.063402
v 0.000000 -0.000002 -0.036598
v 0.100000 -0.100002 -0.036598
v 0.100000 -0.100002 -0.136598
v 0.100000 -0.000002 -0.036598
v 0.100000 0.099998 -0.036598
v 0.100000 0.099998 -0.136598
v 0.600000 0.199998 0.063402
v 0.600000 0.199998 -0.036598
v 0.600000 0.299998 0.063402
v 0.600000 0.299998 -0.036598
v 0.700000 -0.200002 0.063402
v 0.700000 -0.200002 -0.036598
v 0.700000 0.199998 0.063402
v 0.700000 0.199998 -0.036598
v -0.600000 -0.200002 0.063402
v -0.700000 0.199998 0.063402
v -0.700000 -0.200002 0.063402
v -0.600000 0.099998 0.063402
v -0.600000 0.199998 0.063402
v -0.400000 -0.000002 0.063402
v -0.600000 -0.300002 0.063402
v -0.400000 0.099998 0.063402
v -0.200000 -0.300002 0.063402
v -0.200000 -0.200002 0.063402
v -0.100000 -0.200002 0.063402
v -0.100000 -0.100002 0.063402
v 0.000000 -0.100002 0.063402
v 0.000000 -0.000002 0.063402
v 0.100000 0.099998 0.063402
v 0.000000 0.099998 0.063402
v 0.200000 0.199998 0.063402
v 0.100000 0.199998 0.063402
v 0.400000 -0.000002 0.063402
v 0.200000 0.299998 0.063402
v 0.600000 -0.100002 0.063402
v 0.400000 -0.100002 0.063402
v 0.600000 0.199998 0.063402
v 0.600000 0.299998 0.063402
v 0.700000 -0.200002 0.063402
v 0.600000 -0.200002 0.063402
v 0.700000 0.199998 0.063402
v 0.000000 -0.000002 -0.036598
v -0.100000 0.099998 -0.036598
v -0.100000 -0.000002 -0.036598
v 0.000000 0.099998 -0.036598
v 0.100000 -0.100002 -0.036598
v 0.000000 -0.100002 -0.036598
v 0.100000 -0.000002 -0.036598
v -0.700000 -0.200002 -0.036598
v -0.700000 0.199998 -0.036598
v -0.600000 -0.200002 -0.036598
v -0.600000 0.099998 -0.036598
v -0.600000 0.199998 -0.036598
v -0.600000 -0.300002 -0.036598
v -0.400000 -0.000002 -0.036598
v -0.400000 0.099998 -0.036598
v -0.200000 -0.300002 -0.036598
v -0.200000 -0.200002 -0.036598
v -0.100000 -0.200002 -0.036598
v -0.100000 -0.100002 -0.036598
v -0.100000 -0.000002 -0.036598
v 0.100000 -0.000002 -0.036598
v 0.100000 0.099998 -0.036598
v 0.200000 0.199998 -0.036598
v 0.100000 0.199998 -0.036598
v 0.400000 -0.000002 -0.036598
v 0.200000 0.299998 -0.036598
v 0.400000 -0.100002 -0.036598
v 0.600000 -0.100002 -0.036598
v 0.600000 0.199998 -0.036598
v 0.600000 0.299998 -0.036598
v 0.600000 -0.200002 -0.036598
v 0.700000 -0.200002 -0.036598
v 0.700000 0.199998 -0.036598
v -0.100000 -0.100002 -0.136598
v -0.100000 0.099998 -0.136598
v 0.100000 -0.100002 -0.136598
v 0.100000 0.099998 -0.136598
v -0.600000 -0.300002 -0.036598
v -0.200000 -0.300002 0.063402
v -0.600000 -0.300002 0.063402
v -0.200000 -0.300002 -0.036598
v -0.700000 -0.200002 -0.036598
v -0.600000 -0.200002 0.063402
v -0.700000 -0.200002 0.063402
v -0.600000 -0.200002 -0.036598
v -0.200000 -0.200002 -0.036598
v -0.100000 -0.200002 0.063402
v -0.200000 -0.200002 0.063402
v -0.100000 -0.200002 -0.036598
v 0.600000 -0.200002 -0.036598
v 0.700000 -0.200002 0.063402
v 0.600000 -0.200002 0.063402
v 0.700000 -0.200002 -0.036598
v -0.100000 -0.100002 -0.036598
v 0.000000 -0.100002 0.063402
v -0.100000 -0.100002 0.063402
v 0.000000 -0.100002 -0.036598
v 0.400000 -0.100002 -0.036598
v 0.600000 -0.100002 0.063402
v 0.400000 -0.100002 0.063402
v 0.600000 -0.100002 -0.036598
v -0.100000 -0.100002 -0.136598
v 0.100000 -0.100002 -0.036598
v 0.100000 -0.100002 -0.136598
v 0.000000 -0.000002 -0.036598
v 0.400000 -0.000002 0.063402
v 0.000000 -0.000002 0.063402
v 0.100000 -0.000002 -0.036598
v 0.400000 -0.000002 -0.036598
v -0.400000 -0.000002 0.063402
v 0.000000 -0.000002 0.063402
v -0.400000 -0.000002 -0.036598
v -0.100000 -0.000002 -0.036598
v 0.000000 -0.000002 -0.036598
v -0.600000 0.099998 0.063402
v -0.400000 0.099998 0.063402
v -0.600000 0.099998 -0.036598
v -0.400000 0.099998 -0.036598
v 0.000000 0.099998 0.063402
v 0.100000 0.099998 0.063402
v 0.000000 0.099998 -0.036598
v 0.100000 0.099998 -0.036598
v -0.100000 0.099998 -0.036598
v -0.100000 0.099998 -0.136598
v 0.100000 0.099998 -0.136598
v -0.700000 0.199998 0.063402
v -0.600000 0.199998 0.063402
v -0.700000 0.199998 -0.036598
v -0.600000 0.199998 -0.036598
v 0.100000 0.199998 0.063402
v 0.200000 0.199998 0.063402
v 0.100000 0.199998 -0.036598
v 0.200000 0.199998 -0.036598
v 0.600000 0.199998 0.063402
v 0.700000 0.199998 0.063402
v 0.600000 0.199998 -0.036598
v 0.700000 0.199998 -0.036598
v 0.200000 0.299998 0.063402
v 0.600000 0.299998 0.063402
v 0.200000 0.299998 -0.036598
v 0.600000 0.299998 -0.036598
vt 0.935547 0.500000
vt 0.935547 0.500000
vt 0.935547 0.500000
vt 0.935547 0.500000
vt 0.935547 0.500000
vt 0.935547 0.500000
vt 0.935547 0.500000
vt 0.935547 0.500000
vt 0.962891 0.500000
vt 0.962891 0.500000
vt 0.962891 0.500000
vt 0.962891 0.500000
vt 0.962891 0.500000
vt 0.935547 0.500000
vt 0.935547 0.500000
vt 0.935547 0.500000
vt 0.935547 0.500000
vt 0.935547 0.500000
vt 0.935547 0.500000
vt 0.935547 0.500000
vt 0.935547 0.500000
vt 0.935547 0.500000
vt 0.935547 0.500000
vt 0.935547 0.500000
vt 0.935547 0.500000
vt 0.935547 0.500000
vt 0.935547 0.500000
vt 0.935547 0.500000
vt 0.935547 0.500000
vt 0.935547 0.500000
vt 0.935547 0.500000
vt 0.935547 0.500000
vt 0.935547 0.500000
vt 0.935547 0.500000
vt 0.935547 0.500000
vt 0.935547 0.500000
vt 0.935547 0.500000
vt 0.935547 0.500000
vt 0.935547 0.500000
vt 0.935547 0.500000
vt 0.935547 0.500000
vt 0.935547 0.500000
vt 0.935547 0.500000
vt 0.935547 0.500000
vt 0.935547 0.500000
vt 0.935547 0.500000
vt 0.935547 0.500000
vt 0.935547 0.500000
vt 0.935547 0.500000
vt 0.935547 0.500000
vt 0.935547 0.500000
vt 0.935547 0.500000
vt 0.935547 0.500000
vt 0.962891 0.500000
vt 0.962891 0.500000
vt 0.962891 0.500000
vt 0.962891 0.500000
vt 0.962891 0.500000
vt 0.935547 0.500000
vt 0.935547 0.500000
vt 0.935547 0.500000
vt 0.935547 0.500000
vt 0.935547 0.500000
vt 0.935547 0.500000
vt 0.935547 0.500000
vt 0.935547 0.500000
vt 0.935547 0.500000
vt 0.935547 0.500000
vt 0.935547 0.500000
vt 0.935547 0.500000
vt 0.935547 0.500000
vt 0.935547 0.500000
vt 0.935547 0.500000
vt 0.935547 0.500000
vt 0.935547 0.500000
vt 0.935547 0.500000
vt 0.935547 0.500000
vt 0.935547 0.500000
vt 0.935547 0.500000
vt 0.935547 0.500000
vt 0.935547 0.500000
vt 0.935547 0.500000
vt 0.935547 0.500000
vt 0.935547 0.500000
vt 0.935547 0.500000
vt 0.935547 0.500000
vt 0.935547 0.500000
vt 0.935547 0.500000
vt 0.935547 0.500000
vt 0.935547 0.500000
vt 0.935547 0.500000
vt 0.935547 0.500000
vt 0.935547 0.500000
vt 0.962891 0.500000
vt 0.962891 0.500000
vt 0.962891 0.500000
vt 0.962891 0.500000
vt 0.962891 0.500000
vt 0.962891 0.500000
vt 0.962891 0.500000
vt 0.935547 0.500000
vt 0.935547 0.500000
vt 0.935547 0.500000
vt 0.935547 0.500000
vt 0.935547 0.500000
vt 0.935547 0.500000
vt 0.935547 0.500000
vt 0.935547 0.500000
vt 0.935547 0.500000
vt 0.935547 0.500000
vt 0.935547 0.500000
vt 0.935547 0.500000
vt 0.935547 0.500000
vt 0.935547 0.500000
vt 0.935547 0.500000
vt 0.935547 0.500000
vt 0.935547 0.500000
vt 0.935547 0.500000
vt 0.935547 0.500000
vt 0.935547 0.500000
vt 0.935547 0.500000
vt 0.935547 0.500000
vt 0.935547 0.500000
vt 0.935547 0.500000
vt 0.935547 0.500000
vt 0.935547 0.500000
vt 0.962891 0.500000
vt 0.962891 0.500000
vt 0.962891 0.500000
vt 0.962891 0.500000
vt 0.935547 0.500000
vt 0.935547 0.500000
vt 0.935547 0.500000
vt 0.935547 0.500000
vt 0.935547 0.500000
vt 0.935547 0.500000
vt 0.935547 0.500000
vt 0.935547 0.500000
vt 0.935547 0.500000
vt 0.935547 0.500000
vt 0.935547 0.500000
vt 0.935547 0.500000
vt 0.935547 0.500000
vt 0.935547 0.500000
vt 0.935547 0.500000
vt 0.935547 0.500000
vt 0.935547 0.500000
vt 0.935547 0.500000
vt 0.935547 0.500000
vt 0.935547 0.500000
vt 0.935547 0.500000
vt 0.935547 0.500000
vt 0.935547 0.500000
vt 0.935547 0.500000
vt 0.962891 0.500000
vt 0.962891 0.500000
vt 0.962891 0.500000
vt 0.962891 0.500000
vt 0.962891 0.500000
vt 0.935547 0.500000
vt 0.935547 0.500000
vt 0.935547 0.500000
vt 0.935547 0.500000
vt 0.935547 0.500000
vt 0.935547 0.500000
vt 0.935547 0.500000
vt 0.935547 0.500000
vt 0.935547 0.500000
vt 0.935547 0.500000
vt 0.935547 0.500000
vt 0.935547 0.500000
vt 0.935547 0.500000
vt 0.935547 0.500000
vt 0.935547 0.500000
vt 0.935547 0.500000
vt 0.935547 0.500000
vt 0.935547 0.500000
vt 0.962891 0.500000
vt 0.962891 0.500000
vt 0.962891 0.500000
vt 0.962891 0.500000
vt 0.962891 0.500000
vt 0.935547 0.500000
vt 0.935547 0.500000
vt 0.935547 0.500000
vt 0.935547 0.500000
vt 0.935547 0.500000
vt 0.935547 0.500000
vt 0.935547 0.500000
vt 0.935547 0.500000
vt 0.935547 0.500000
vt 0.935547 0.500000
vt 0.935547 0.500000
vt 0.935547 0.500000
vt 0.935547 0.500000
vt 0.935547 0.500000
vt 0.935547 0.500000
vt 0.935547 0.500000
vn -1.0000 -0.0000 0.0000
vn 1.0000 0.0000 0.0000
vn 0.0000 -0.0000 1.0000
vn 0.0000 0.0000 -1.0000
vn 0.0000 -1.0000 0.0000
vn 0.0000 1.0000 0.0000
usemtl palette
s 1
f 1/1/1 2/2/1 3/3/1
f 4/4/1 2/2/1 1/1/1
f 5/5/1 6/6/1 7/7/1
f 8/8/1 6/6/1 5/5/1
f 9/9/1 10/10/1 11/11/1
f 12/12/1 10/10/1 9/9/1
f 13/13/1 10/10/1 12/12/1
f 14/14/1 15/15/1 16/16/1
f 17/17/1 15/15/1 14/14/1
f 18/18/1 19/19/1 20/20/1
f 21/21/1 19/19/1 18/18/1
f 22/22/1 23/23/1 24/24/1
f 25/25/1 23/23/1 22/22/1
f 26/26/1 27/27/1 28/28/1
f 29/29/1 27/27/1 26/26/1
f 30/30/1 31/31/1 32/32/1
f 33/33/1 31/31/1 30/30/1
f 34/34/2 35/35/2 36/36/2
f 36/36/2 35/35/2 37/37/2
f 38/38/2 39/39/2 40/40/2
f 40/40/2 39/39/2 41/41/2
f 42/42/2 43/43/2 44/44/2
f 44/44/2 43/43/2 45/45/2
f 46/46/2 47/47/2 48/48/2
f 48/48/2 47/47/2 49/49/2
f 50/50/2 51/51/2 52/52/2
f 52/52/2 51/51/2 53/53/2
f 54/54/2 55/55/2 56/56/2
f 56/56/2 55/55/2 57/57/2
f 57/57/2 55/55/2 58/58/2
f 59/59/2 60/60/2 61/61/2
f 61/61/2 60/60/2 62/62/2
f 63/63/2 64/64/2 65/65/2
f 65/65/2 64/64/2 66/66/2
f 67/67/3 68/68/3 69/69/3
f 70/70/3 68/68/3 67/67/3
f 71/71/3 68/68/3 70/70/3
f 72/72/3 67/67/3 73/73/3
f 72/72/3 70/70/3 67/67/3
f 74/74/3 70/70/3 72/72/3
f 75/75/3 72/72/3 73/73/3
f 76/76/3 72/72/3 75/75/3
f 77/77/3 72/72/3 76/76/3
f 78/78/3 72/72/3 77/77/3
f 79/79/3 72/72/3 78/78/3
f 80/80/3 72/72/3 79/79/3
f 81/81/3 82/82/3 80/80/3
f 83/83/3 84/84/3 81/81/3
f 85/85/3 83/83/3 81/81/3
f 85/85/3 86/86/3 83/83/3
f 85/85/3 81/81/3 80/80/3
f 87/87/3 85/85/3 88/88/3
f 89/89/3 86/86/3 85/85/3
f 89/89/3 85/85/3 87/87/3
f 90/90/3 86/86/3 89/89/3
f 91/91/3 87/87/3 92/92/3
f 91/91/3 89/89/3 87/87/3
f 93/93/3 89/89/3 91/91/3
f 94/94/3 95/95/3 96/96/3
f 97/97/3 95/95/3 94/94/3
f 98/98/3 94/94/3 99/99/3
f 100/100/3 94/94/3 98/98/3
f 101/101/4 102/102/4 103/103/4
f 103/103/4 102/102/4 104/104/4
f 104/104/4 102/102/4 105/105/4
f 106/106/4 103/103/4 107/107/4
f 103/103/4 104/104/4 107/107/4
f 107/107/4 104/104/4 108/108/4
f 106/106/4 107/107/4 109/109/4
f 109/109/4 107/107/4 110/110/4
f 110/110/4 107/107/4 111/111/4
f 111/111/4 107/107/4 112/112/4
f 112/112/4 107/107/4 113/113/4
f 114/114/4 115/115/4 116/116/4
f 115/115/4 117/117/4 116/116/4
f 114/114/4 116/116/4 118/118/4
f 116/116/4 119/119/4 118/118/4
f 120/120/4 118/118/4 121/121/4
f 118/118/4 119/119/4 122/122/4
f 121/121/4 118/118/4 122/122/4
f 122/122/4 119/119/4 123/123/4
f 124/124/4 121/121/4 125/125/4
f 121/121/4 122/122/4 125/125/4
f 125/125/4 122/122/4 126/126/4
f 127/127/4 128/128/4 129/129/4
f 129/129/4 128/128/4 130/130/4
f 131/131/5 132/132/5 133/133/5
f 134/134/5 132/132/5 131/131/5
f 135/135/5 136/136/5 137/137/5
f 138/138/5 136/136/5 135/135/5
f 139/139/5 140/140/5 141/141/5
f 142/142/5 140/140/5 139/139/5
f 143/143/5 144/144/5 145/145/5
f 146/146/5 144/144/5 143/143/5
f 147/147/5 148/148/5 149/149/5
f 150/150/5 148/148/5 147/147/5
f 151/151/5 152/152/5 153/153/5
f 154/154/5 152/152/5 151/151/5
f 155/155/5 156/156/5 150/157/5
f 155/155/5 150/157/5 147/158/5
f 157/159/5 156/156/5 155/155/5
f 158/160/5 159/161/5 160/162/5
f 161/163/5 159/161/5 158/160/5
f 162/164/5 159/161/5 161/163/5
f 163/165/6 164/166/6 165/167/6
f 165/167/6 164/166/6 166/168/6
f 166/168/6 164/166/6 167/169/6
f 168/170/6 169/171/6 170/172/6
f 170/172/6 169/171/6 171/173/6
f 172/174/6 173/175/6 174/176/6
f 174/176/6 173/175/6 175/177/6
f 176/178/6 174/179/6 177/180/6
f 174/179/6 175/181/6 177/180/6
f 177/180/6 175/181/6 178/182/6
f 179/183/6 180/184/6 181/185/6
f 181/185/6 180/184/6 182/186/6
f 183/187/6 184/188/6 185/189/6
f 185/189/6 184/188/6 186/190/6
f 187/191/6 188/192/6 189/193/6
f 189/193/6 188/192/6 190/194/6
f 191/195/6 192/196/6 193/197/6
f 193/197/6 192/196/6 194/198/6
